<svg width="20" height="20" viewBox="0 0 20 20" fill="none" xmlns="http://www.w3.org/2000/svg">
  <g clip-path="url(#clip0_1_492)">
    <path d="M18.5714 2.85715H13.5715V2.14285C13.5715 0.959387 12.6121 0 11.4286 0H8.57147C7.388 0 6.42861 0.959387 6.42861 2.14285V2.85715H1.4286C1.0341 2.85715 0.714302 3.17695 0.714302 3.57145C0.714302 3.96595 1.03414 4.28571 1.4286 4.28571H2.20501L3.57146 19.3507C3.60515 19.7196 3.91532 20.0015 4.28576 20H15.7143C16.0848 20.0015 16.3949 19.7196 16.4286 19.3507L17.795 4.28571H18.5715C18.966 4.28571 19.2858 3.96591 19.2858 3.57141C19.2858 3.17691 18.9659 2.85715 18.5714 2.85715ZM7.85717 2.14285C7.85717 1.74835 8.17696 1.42856 8.57147 1.42856H11.4286C11.8231 1.42856 12.1429 1.74835 12.1429 2.14285V2.85715H7.85721V2.14285H7.85717ZM15.0622 18.5714H4.9379L3.6429 4.28571H7.14291H16.3607L15.0622 18.5714Z" fill="#4D4D4D" fill-opacity="0.3" />
    <path d="M7.85738 16.3808C7.85729 16.3799 7.85725 16.3789 7.85717 16.3779L7.14287 6.37793C7.11487 5.98342 6.77234 5.68635 6.37788 5.71435C5.98338 5.74235 5.68631 6.08487 5.71431 6.47933L6.42861 16.4793C6.45527 16.8539 6.7674 17.1439 7.14291 17.1429H7.19434C7.58789 17.1156 7.88475 16.7744 7.85738 16.3808Z" fill="#4D4D4D" fill-opacity="0.3" />
    <path d="M9.99987 5.71423C9.60537 5.71423 9.28558 6.03403 9.28558 6.42853V16.4285C9.28558 16.823 9.60537 17.1428 9.99987 17.1428C10.3944 17.1428 10.7142 16.823 10.7142 16.4285V6.42853C10.7142 6.03403 10.3944 5.71423 9.99987 5.71423Z" fill="#4D4D4D" fill-opacity="0.3" />
    <path d="M13.622 5.71435C13.2275 5.68635 12.885 5.98342 12.857 6.37793L12.1427 16.3779C12.1138 16.7713 12.4093 17.1137 12.8027 17.1426C12.8039 17.1427 12.8051 17.1428 12.8063 17.1429H12.857C13.2325 17.1438 13.5447 16.8539 13.5713 16.4793L14.2856 6.47933C14.3136 6.08487 14.0165 5.74239 13.622 5.71435Z" fill="#4D4D4D" fill-opacity="0.3" />
  </g>
  <defs>
    <clipPath id="clip0_1_492">
      <rect width="20" height="20" fill="white" />
    </clipPath>
  </defs>
</svg>